# xmcd
#
# Track frame offsets:
#	150
#	37302
#	61607
#	78557
#	95467
#	116265
#	140145
#	166752
#	189292
#	210090
#	240487
#	269057
#	291600
#	324815
#
# Disc length: 4632 seconds
# Revision: 3
# Processed by: cddbd v1.5.2PL0 Copyright (c) Steve Scherf et al.
# Submitted via: dBpowerAMP V12.0
#
DISCID=c212160e
DTITLE=Various Artist - George Clinton - A Fifth Of Funk [Castle Communications ESMCD 490]
DYEAR=1995
DGENRE=Soul
TTITLE0=Parliament - Flatman And Robin
TTITLE1=Lonnie Greene - I Didn't Know That Funk Was Loaded (Count Funkula)
TTITLE2=Ron Ford - Thumparella (Oh Kay)
TTITLE3=Jessica Cleaves - Eyes Of A Dreamer
TTITLE4=Phillipe Wynne - I Found You
TTITLE5=Brides Of Funkenstein - Ice Melting In Your Heart
TTITLE6=Treylewd With Flastic Brain Flam - Clone Ranger
TTITLE7=Bernie Worrell - Who Do You Love
TTITLE8=Brides Of Funkenstein - Up Up Up And Away
TTITLE9=Junie Morrison - Can't Get Over Losing You
TTITLE10=Dr. Funkenstein And The Brides Of Funkestein - Rat Kissed The Cat
TTITLE11=Funkadelic - Too Tight For Light
TTITLE12=George Clinton, Diane Brooks And Funkadelic - Every Little Bit Hurts
TTITLE13=George Clinton - Interview - Final Thoughts
EXTD=
EXTT0=
EXTT1=
EXTT2=
EXTT3=
EXTT4=
EXTT5=
EXTT6=
EXTT7=
EXTT8=
EXTT9=
EXTT10=
EXTT11=
EXTT12=
EXTT13=
PLAYORDER=
